<svg width="54" height="54" viewBox="0 0 54 54" fill="none" xmlns="http://www.w3.org/2000/svg">
<circle cx="27.0974" cy="26.9028" r="26.3854" stroke="#F14B23" stroke-width="1.03472"/>
<path d="M18.8196 25.8681C18.2481 25.8681 17.7849 26.3314 17.7849 26.9028C17.7849 27.4743 18.2481 27.9376 18.8196 27.9376V25.8681ZM36.1068 27.6345C36.5109 27.2304 36.5109 26.5753 36.1068 26.1712L29.5219 19.5862C29.1178 19.1821 28.4626 19.1821 28.0585 19.5862C27.6545 19.9903 27.6545 20.6455 28.0585 21.0496L33.9118 26.9028L28.0585 32.7561C27.6545 33.1602 27.6545 33.8153 28.0585 34.2194C28.4626 34.6235 29.1178 34.6235 29.5219 34.2194L36.1068 27.6345ZM18.8196 27.9376H35.3751V25.8681H18.8196V27.9376Z" fill="#F14B23"/>
</svg>
