<svg width="55" height="54" viewBox="0 0 55 54" fill="none" xmlns="http://www.w3.org/2000/svg">
<circle cx="26.9028" cy="26.9028" r="26.3854" transform="matrix(-1 0 0 1 54.3612 0)" stroke="#F14B23" stroke-width="1.03472"/>
<path d="M35.7365 25.868C36.3079 25.868 36.7712 26.3312 36.7712 26.9027C36.7712 27.4742 36.3079 27.9374 35.7365 27.9374V25.868ZM18.4492 27.6344C18.0452 27.2303 18.0452 26.5751 18.4492 26.171L25.0342 19.5861C25.4383 19.182 26.0934 19.182 26.4975 19.5861C26.9016 19.9902 26.9016 20.6453 26.4975 21.0494L20.6442 26.9027L26.4975 32.756C26.9016 33.1601 26.9016 33.8152 26.4975 34.2193C26.0934 34.6234 25.4383 34.6234 25.0342 34.2193L18.4492 27.6344ZM35.7365 27.9374H19.1809V25.868H35.7365V27.9374Z" fill="#F14B23"/>
</svg>
